<svg width="331" height="291" viewBox="0 0 331 291" fill="none" xmlns="http://www.w3.org/2000/svg">
    <defs>
        <linearGradient id="paint0_linear_38_718" x1="329.944" y1="123.868" x2="161.02" y2="30.0903" gradientUnits="userSpaceOnUse">
            <stop offset="0.01"/>
            <stop offset="0.08" stop-opacity="0.69"/>
            <stop offset="0.21" stop-opacity="0.32"/>
            <stop offset="1" stop-opacity="0"/>
        </linearGradient>
        <linearGradient id="paint1_linear_38_718" x1="199.196" y1="176.065" x2="195.444" y2="281.785" gradientUnits="userSpaceOnUse">
            <stop offset="0.01"/>
            <stop offset="0.84" stop-opacity="0"/>
        </linearGradient>
        <linearGradient id="paint2_linear_38_718" x1="40.4424" y1="48.9237" x2="346.289" y2="252.354" gradientUnits="userSpaceOnUse">
            <stop offset="0.01"/>
            <stop offset="0.08" stop-opacity="0.69"/>
            <stop offset="0.21" stop-opacity="0.32"/>
            <stop offset="1" stop-opacity="0"/>
        </linearGradient>
        <linearGradient id="paint3_linear_38_718" x1="189.492" y1="180.234" x2="286.967" y2="216.149" gradientUnits="userSpaceOnUse">
            <stop offset="0.01"/>
            <stop offset="0.84" stop-opacity="0"/>
        </linearGradient>
        <linearGradient id="paint4_linear_38_718" x1="220.038" y1="218.799" x2="240.982" y2="218.799" gradientUnits="userSpaceOnUse">
            <stop offset="0.01"/>
            <stop offset="0.13" stop-opacity="0.69"/>
            <stop offset="0.25" stop-opacity="0.32"/>
            <stop offset="1" stop-opacity="0"/>
        </linearGradient>
        <linearGradient id="paint5_linear_38_718" x1="190.715" y1="181.77" x2="323.143" y2="255.926" gradientUnits="userSpaceOnUse">
            <stop offset="0.01"/>
            <stop offset="0.13" stop-opacity="0.69"/>
            <stop offset="0.25" stop-opacity="0.32"/>
            <stop offset="1" stop-opacity="0"/>
        </linearGradient>
        <linearGradient id="paint6_linear_38_718" x1="193.6" y1="134.675" x2="221.813" y2="141.132" gradientUnits="userSpaceOnUse">
            <stop offset="0.01"/>
            <stop offset="0.13" stop-opacity="0.69"/>
            <stop offset="0.25" stop-opacity="0.32"/>
            <stop offset="1" stop-opacity="0"/>
        </linearGradient>
        <linearGradient id="paint7_linear_38_718" x1="197.143" y1="206.255" x2="246.033" y2="203.065" gradientUnits="userSpaceOnUse">
            <stop offset="0.01"/>
            <stop offset="0.13" stop-opacity="0.69"/>
            <stop offset="0.25" stop-opacity="0.32"/>
            <stop offset="1" stop-opacity="0"/>
        </linearGradient>
        <linearGradient id="paint8_linear_38_718" x1="180.401" y1="16.0183" x2="176.37" y2="175.992" gradientUnits="userSpaceOnUse">
            <stop offset="0.01"/>
            <stop offset="0.84" stop-opacity="0"/>
        </linearGradient>
        <linearGradient id="paint9_linear_38_718" x1="180.401" y1="25.8835" x2="176.37" y2="185.857" gradientUnits="userSpaceOnUse">
            <stop offset="0.01"/>
            <stop offset="0.84" stop-opacity="0"/>
        </linearGradient>
        <linearGradient id="paint10_linear_38_718" x1="180.401" y1="35.7487" x2="176.37" y2="195.732" gradientUnits="userSpaceOnUse">
            <stop offset="0.01"/>
            <stop offset="0.84" stop-opacity="0"/>
        </linearGradient>
        <linearGradient id="paint11_linear_38_718" x1="180.401" y1="45.6229" x2="176.37" y2="205.597" gradientUnits="userSpaceOnUse">
            <stop offset="0.01"/>
            <stop offset="0.84" stop-opacity="0"/>
        </linearGradient>
        <linearGradient id="paint12_linear_38_718" x1="180.401" y1="55.4882" x2="176.37" y2="215.462" gradientUnits="userSpaceOnUse">
            <stop offset="0.01"/>
            <stop offset="0.84" stop-opacity="0"/>
        </linearGradient>
        <clipPath id="clip0_38_718">
            <rect width="331" height="291" fill="white"/>
        </clipPath>
    </defs>
    <g clip-path="url(#clip0_38_718)">
        <path opacity="0.18" d="M180.557 0.0733544C179.773 0.0733544 178.911 0.164784 178.08 0.237927C161.527 1.57994 145.52 7.70021 131.498 18.0483C128.715 20.1195 126.03 22.3659 123.456 24.7775C115.916 31.8358 109.151 40.4575 105.569 50.9261C103.704 56.4119 102.748 62.181 101.65 67.9045C98.6403 83.0634 93.812 98.716 83.3794 108.407C70.3759 120.494 54.5664 124.645 43.2637 139.832C32.0865 154.853 24.2954 172.197 24.3189 192.495C24.3189 243.027 61.7304 260.582 96.7513 273.254C138.168 288.303 182.226 295.197 225.423 288.349C243.725 285.441 262.262 279.837 277.154 267.174C299.509 248.23 310.255 213.468 305.615 182.026C303.263 166.072 299.125 151.653 298.004 135.26C296.546 113.884 299.626 91.9686 294.257 71.0862C285.322 36.4438 254.283 13.7968 225.117 7.36938C210.224 4.09623 195.904 -0.621505 180.557 0.0733544Z" fill="#AA37E7"/>
        <path d="M277.476 46.3727V75.5111C277.494 76.8463 277.287 78.1727 276.867 79.4146C276.446 80.6564 275.819 81.7894 275.023 82.7488C274.227 83.7082 273.276 84.4752 272.226 85.0061C271.175 85.5369 270.045 85.8212 268.901 85.8426H249.823L241.201 100.407V85.8426H224.976C222.664 85.7969 220.462 84.6835 218.853 82.7467C217.244 80.8099 216.359 78.2078 216.393 75.5111V46.3727C216.359 43.676 217.244 41.0739 218.853 39.1371C220.462 37.2003 222.664 36.087 224.976 36.0413H268.869C270.015 36.0556 271.148 36.3334 272.202 36.8587C273.255 37.3841 274.21 38.1467 275.011 39.1029C275.812 40.0592 276.443 41.1902 276.869 42.4314C277.294 43.6726 277.506 44.9995 277.491 46.3362L277.476 46.3727Z" fill="url(#paint0_linear_38_718)"/>
        <path d="M272.679 259.055C273.022 259.245 273.332 259.505 273.596 259.823C273.91 260.179 274.111 260.648 274.166 261.155C274.222 261.661 274.129 262.175 273.902 262.611C273.414 263.18 272.757 263.507 272.068 263.526L247.769 267.932C243.521 268.7 239.242 269.468 234.954 269.222C232.926 269.103 230.913 268.757 228.942 268.188C225.282 267.137 221.794 265.327 218.094 264.531C214.395 263.736 210.711 264.257 207.011 263.983C202.59 263.663 198.389 261.551 194.086 260.326C188.09 258.68 181.796 259.951 176.003 258.086C169.939 256.181 163.71 255.08 157.435 254.803C151.07 254.465 144.698 254.684 138.333 254.694C135.143 254.694 131.953 254.694 128.763 254.483C126.474 254.355 122.053 252.764 119.96 253.569C129.241 249.985 139.14 249.674 148.875 249.446C157.45 249.257 166.023 249.11 174.592 249.007C185.213 248.888 195.928 248.851 206.313 251.512L191.915 255.398C199.34 257.394 206.94 258.366 214.559 258.296L224.208 258.104C227.79 258.04 231.372 258.104 234.954 258.104C236.467 258.104 238.136 257.802 239.657 257.93C241.178 258.058 242.831 259 244.36 259.649C245.214 260.121 246.161 260.32 247.103 260.225C247.949 259.925 248.744 259.458 249.455 258.844C252.465 256.751 256.125 256.668 259.597 256.778C263.561 256.778 267.51 257.346 271.354 258.47C271.811 258.614 272.255 258.81 272.679 259.055Z" fill="url(#paint1_linear_38_718)"/>
        <path d="M189.085 56.4757H134.006C127.73 56.4757 122.641 62.4112 122.641 69.7329V224.376C122.641 231.698 127.73 237.633 134.006 237.633H189.085C195.362 237.633 200.451 231.698 200.451 224.376V69.7329C200.451 62.4112 195.362 56.4757 189.085 56.4757Z" fill="#AA37E7"/>
        <path d="M187.925 58.7522H135.166C129.097 58.7522 124.177 64.4912 124.177 71.5705V222.227C124.177 229.306 129.097 235.045 135.166 235.045H187.925C193.994 235.045 198.914 229.306 198.914 222.227V71.5705C198.914 64.4912 193.994 58.7522 187.925 58.7522Z" fill="#473F47"/>
        <path d="M196.884 73.2529V218.744C196.892 220.351 196.629 221.945 196.109 223.434C195.589 224.923 194.823 226.278 193.854 227.422C192.886 228.565 191.733 229.475 190.463 230.099C189.193 230.723 187.83 231.05 186.451 231.059H136.726C134.904 231.062 133.113 230.5 131.537 229.432C129.935 228.344 128.605 226.784 127.682 224.908C126.759 223.032 126.275 220.907 126.278 218.744V73.2529C126.265 70.0043 127.359 66.8827 129.318 64.5736C131.277 62.2645 133.941 60.9567 136.726 60.9374H145.137V62.766C145.147 63.9283 145.45 65.0614 146.007 66.0251C146.565 66.9888 147.352 67.7407 148.272 68.1877C148.883 68.4714 149.534 68.6172 150.192 68.6174H173.299C174.644 68.6077 175.931 67.9771 176.879 66.8633C177.826 65.7496 178.357 64.2435 178.355 62.6745V60.9374H186.491C189.184 60.9397 191.771 62.1663 193.702 64.3568C194.717 65.5145 195.522 66.8988 196.069 68.4272C196.616 69.9556 196.893 71.5968 196.884 73.2529Z" fill="white"/>
        <path d="M196.884 73.2529V116.535H126.247V73.2529C126.24 71.6412 126.507 70.044 127.03 68.5525C127.554 67.061 128.324 65.7046 129.298 64.5607C130.271 63.4169 131.428 62.5081 132.703 61.8864C133.977 61.2647 135.345 60.9422 136.726 60.9374H145.152V62.766C145.163 63.9283 145.466 65.0614 146.023 66.0251C146.58 66.9888 147.368 67.7407 148.288 68.1877C148.899 68.4714 149.55 68.6172 150.208 68.6174H173.315C174.66 68.6077 175.947 67.9771 176.894 66.8633C177.842 65.7496 178.373 64.2435 178.37 62.6745V60.9374H186.506C189.2 60.9397 191.787 62.1663 193.718 64.3568C194.73 65.516 195.532 66.901 196.076 68.4293C196.62 69.9577 196.895 71.5981 196.884 73.2529Z" fill="#AA37E7"/>
        <path d="M122.618 176.083H148.139C149.855 176.049 151.489 175.223 152.682 173.784C153.875 172.346 154.531 170.414 154.503 168.412V103.178C154.517 102.187 154.363 101.203 154.05 100.282C153.738 99.3607 153.273 98.5204 152.682 97.8089C152.091 97.0974 151.385 96.5287 150.606 96.1353C149.826 95.7418 148.988 95.5314 148.139 95.5159H122.618V176.083Z" fill="url(#paint2_linear_38_718)"/>
        <path d="M144.282 95.5159H90.0653C86.8663 95.5159 84.2729 98.5409 84.2729 102.272V164.298C84.2729 168.029 86.8663 171.054 90.0653 171.054H144.282C147.481 171.054 150.074 168.029 150.074 164.298V102.272C150.074 98.5409 147.481 95.5159 144.282 95.5159Z" fill="white"/>
        <path d="M243.592 247.151C243.592 247.151 245.99 249.784 245.52 251.658C245.05 253.532 242.894 254.776 242.596 257.062C242.298 259.347 241.138 260.591 240.088 260.591H235.072C235.072 260.591 234.288 258.982 236.169 258.497C238.05 258.012 238.74 255.324 238.622 252.828C238.576 250.888 238.637 248.945 238.803 247.014L242.777 245.898L243.592 247.151Z" fill="#FCBDBA"/>
        <path d="M223.307 248.266C223.307 248.266 224.169 259.42 223.118 260.051H209.621C209.621 260.051 209.621 258.177 211.784 257.766C213.948 257.354 217.749 255.827 218.392 252.426C219.035 249.025 223.307 248.266 223.307 248.266Z" fill="#FCBDBA"/>
        <path d="M232.9 168.238C230.134 160.75 228.441 158.611 228.762 156.28C229.005 154.552 228.025 124.06 228.025 124.06C227.696 123.932 227.037 123.822 226.677 123.731C226.112 123.577 225.589 123.26 225.157 122.807C224.726 122.355 224.399 121.783 224.208 121.143C223.609 118.917 223.326 116.592 223.369 114.259L223.016 114.341L217.052 115.767C217.052 115.767 217.185 118.026 217.185 120.156V120.211C217.2 121.1 216.966 121.971 216.52 122.692C216.073 123.413 215.437 123.944 214.708 124.206L213.297 124.691C211.928 129.65 211.052 134.776 210.687 139.969C210.272 147.703 214.677 151.068 210.687 166.538C206.556 182.318 234.437 172.362 232.9 168.238Z" fill="#FCBDBA"/>
        <path d="M228.762 156.27C228.762 156.27 234.679 165.843 235.236 172.307C235.792 178.771 236.098 201.491 237.274 207.8C238.45 214.108 242.761 226.241 242.761 245.898C242.354 246.72 241.7 247.335 240.926 247.626C240.398 247.843 239.859 248.023 239.312 248.165C238.75 248.317 238.162 248.238 237.644 247.944C237.126 247.649 236.71 247.156 236.467 246.547C233.551 239.461 224.239 216.613 223.761 211.877C223.424 208.522 220.485 186.277 214.073 173.276C212.505 170.149 215.021 157.733 215.021 157.733L228.762 156.27Z" fill="#AA37E7"/>
        <path d="M242.768 245.953C242.371 246.755 241.735 247.36 240.981 247.653H240.973C240.442 247.869 239.9 248.049 239.351 248.193C238.791 248.343 238.203 248.265 237.686 247.97C237.17 247.676 236.756 247.183 236.513 246.575C233.59 239.489 224.286 216.641 223.808 211.896C222.95 204.873 221.693 197.924 220.046 191.096C218.556 184.888 216.597 178.423 214.089 173.349C212.521 170.213 215.037 157.806 215.037 157.806L228.762 156.353C228.762 156.353 234.679 165.916 235.236 172.389C235.792 178.862 236.098 201.582 237.274 207.882C238.45 214.181 242.768 226.232 242.768 245.953Z" fill="url(#paint3_linear_38_718)"/>
        <path d="M240.974 247.608C240.442 247.824 239.9 248.004 239.351 248.147C238.791 248.298 238.203 248.219 237.687 247.924C237.17 247.63 236.756 247.137 236.514 246.529C233.59 239.443 224.286 216.595 223.808 211.85C222.962 204.816 221.715 197.855 220.077 191.013C220.474 190.245 221.116 189.691 221.862 189.473C222.609 189.256 223.399 189.392 224.059 189.852H224.106C226.81 191.571 227.751 197.806 228.221 201.016C228.95 206.136 228.668 211.567 230.455 216.303C231.411 218.844 232.94 221.084 233.653 223.745C234.079 225.937 234.352 228.166 234.468 230.41C235 234.926 236.546 239.197 238.951 242.789C239.931 244.225 241.107 245.788 240.974 247.608Z" fill="url(#paint4_linear_38_718)"/>
        <path d="M217.052 115.758C217.052 115.758 217.185 118.016 217.185 120.147C220.532 120.037 222.295 116.371 223.017 114.332L217.052 115.758Z" fill="#FCBDBA"/>
        <path d="M215.993 117.696C216.041 117.758 216.097 117.81 216.158 117.852C216.326 117.959 216.516 118.01 216.707 117.998C217.464 117.98 218.212 117.807 218.917 117.486C220.003 117.129 221.033 116.57 221.966 115.831C222.907 115.006 223.558 113.81 223.8 112.467C223.931 111.254 223.967 110.03 223.91 108.81C223.91 107.118 224.106 105.015 223.267 103.534C222.483 102.19 221.08 101.861 219.826 101.779C218.071 101.651 215.86 101.678 214.481 103.214C214.083 103.673 213.783 104.233 213.603 104.851C213.351 106.046 213.282 107.284 213.399 108.508C213.395 109.503 213.348 110.498 213.258 111.488C213.234 111.67 213.234 111.855 213.258 112.037C213.347 112.309 213.496 112.548 213.689 112.732C214.724 114.048 214.904 116.051 215.821 117.486C215.87 117.565 215.928 117.636 215.993 117.696Z" fill="#FCBDBA"/>
        <path d="M216.229 101.614C216.229 101.614 218.392 108.563 221.715 109.596C225.039 110.629 226.481 109.55 226.481 109.55C224.826 107.797 223.739 105.435 223.4 102.858C223.4 102.858 217.859 98.3044 216.229 101.614Z" fill="#473F47"/>
        <path d="M217.655 114.103C217.454 114.376 217.201 114.59 216.917 114.728C216.632 114.866 216.324 114.924 216.017 114.899C215.759 114.877 215.51 114.776 215.297 114.606C215.083 114.436 214.912 114.202 214.802 113.93C215.748 113.671 216.737 113.731 217.655 114.103Z" fill="#FCBDBA"/>
        <path d="M213.54 155.493L211.839 154.881C211.839 154.881 211.792 154.734 211.714 154.46C212.269 154.92 212.887 155.269 213.54 155.493Z" fill="#FCBDBA"/>
        <path d="M212.31 156.709C212.31 156.709 208.43 171.256 208.179 176.211C207.928 181.166 215.602 246.611 215.907 248.87C216.213 251.128 218.423 252.39 218.423 252.39C219.191 252.842 220.081 252.924 220.9 252.618C221.879 252.378 222.792 251.86 223.557 251.11C223.557 251.11 226.575 204.481 224.71 187.786C223.568 177.475 222.935 167.096 222.813 156.7L212.31 156.709Z" fill="#AA37E7"/>
        <path d="M223.557 251.119C222.786 251.863 221.872 252.378 220.892 252.618C220.17 252.875 219.396 252.846 218.69 252.536C218.594 252.5 218.501 252.451 218.415 252.39C218.415 252.39 216.197 251.018 215.907 248.87C215.617 246.721 207.936 181.166 208.187 176.211C208.437 171.256 212.31 156.709 212.31 156.709H222.821C222.936 167.105 223.567 177.484 224.71 187.795C226.575 204.463 223.557 251.119 223.557 251.119Z" fill="url(#paint5_linear_38_718)"/>
        <path d="M233.66 145.034C233.535 147.777 231.254 151.37 230.933 152.275C230.149 154.524 229.208 154.881 229.208 154.881C229.46 155.791 229.592 156.74 229.6 157.697C229.6 157.697 221.253 160.238 214.802 159.059C213.82 158.887 212.857 158.599 211.925 158.199C211.438 157.034 211.354 155.695 211.69 154.46C211.079 152.275 208.406 142.126 209.683 136.129C209.989 134.675 210.35 133.239 210.757 131.804C211.118 130.551 211.298 129.299 211.651 128.046C211.887 127.479 211.964 126.839 211.87 126.218C211.82 126.034 211.725 125.872 211.597 125.75C211.469 125.629 211.313 125.553 211.149 125.532C211.064 125.524 210.977 125.541 210.899 125.583C210.821 125.624 210.753 125.689 210.702 125.77C211.525 123.402 213.736 122.286 215.742 121.381C216.104 121.196 216.492 121.091 216.887 121.07C217.43 121.153 217.947 121.392 218.392 121.765C218.838 122.067 219.293 122.341 219.763 122.606C221.064 123.314 222.444 123.8 223.863 124.051C224.591 124.185 225.328 124.237 226.065 124.206C226.528 124.206 227.492 123.822 227.899 124.051C228.762 124.544 229.569 127.708 229.984 128.704C231.218 131.636 232.443 134.568 233.66 137.5C233.79 140.009 233.79 142.525 233.66 145.034Z" fill="white"/>
        <path d="M216.738 131.018C216.635 132.659 216.268 134.262 215.656 135.745C215.478 136.117 215.273 136.472 215.045 136.805C214.551 137.555 213.963 138.231 213.516 139.027C212.207 141.367 212.356 144.439 212.552 147.255C212.764 150.382 213.015 153.573 214.057 156.398C214.432 157.217 214.684 158.105 214.802 159.022C213.82 158.85 212.857 158.562 211.925 158.163C211.438 156.998 211.354 155.659 211.69 154.423C211.079 152.238 208.406 142.09 209.683 136.092C209.989 134.638 210.35 133.203 210.757 131.767C211.118 130.515 211.298 129.262 211.651 128.01C211.887 127.442 211.964 126.802 211.87 126.181C211.82 125.998 211.725 125.835 211.597 125.714C211.469 125.592 211.313 125.516 211.149 125.495C211.367 125.057 211.63 124.652 211.933 124.288C212.219 123.896 212.583 123.591 212.992 123.398C213.402 123.206 213.845 123.132 214.284 123.182C214.848 123.291 215.366 123.612 215.758 124.097C217.106 125.925 217.004 128.65 216.738 131.018Z" fill="url(#paint6_linear_38_718)"/>
        <path d="M217.459 114.295C217.459 114.295 217.326 114.99 215.891 114.88C215.891 114.88 214.677 114.798 214.716 114.03C215.626 113.713 216.606 113.808 217.459 114.295Z" fill="#FCBDBA"/>
        <path d="M198.648 128.54C195.678 128.267 192.742 127.617 189.892 126.602C188.552 126.154 187.212 125.569 185.864 125.285C185.263 125.195 184.685 124.955 184.17 124.583C183.655 124.211 183.214 123.715 182.877 123.127C182.25 122.012 181.897 120.485 180.839 120.037L180.926 121.738C180.956 121.933 180.926 122.134 180.839 122.304C180.628 122.624 180.204 122.432 179.922 122.213L176.215 119.36C176.192 119.743 176.253 120.125 176.389 120.473C176.526 120.821 176.736 121.124 176.999 121.354C177.541 121.79 177.967 122.395 178.229 123.1C177.192 122.378 176.094 121.78 174.953 121.317C174.936 121.666 175.001 122.014 175.138 122.324C175.276 122.634 175.483 122.896 175.737 123.082C176.249 123.428 176.705 123.877 177.085 124.407C176.133 124.077 175.157 123.85 174.169 123.731C173.942 124.316 174.569 124.819 175.078 125.02L177.257 125.879C176.383 125.86 175.509 125.899 174.639 125.998C175.117 126.748 176.082 126.519 176.85 126.73C177.631 127.087 178.355 127.597 178.99 128.238C179.969 128.859 181.028 129.291 182.125 129.518C182.872 129.891 183.565 130.397 184.178 131.018C186.265 132.445 188.448 133.668 190.708 134.675C191.813 135.214 192.926 135.754 194.07 136.174C197.66 137.491 201.485 137.564 205.24 137.326C208.115 137.25 210.93 136.352 213.438 134.711C215.641 133.267 216.479 129.335 216.111 126.483C216.063 125.846 215.862 125.237 215.531 124.727C215.192 124.311 214.746 124.035 214.261 123.941C212.474 123.511 210.75 124.773 209.135 125.77C205.936 127.836 202.298 128.797 198.648 128.54Z" fill="#FCBDBA"/>
        <path d="M213.14 107.447L214.206 105.134C214.199 105.87 214.373 106.594 214.708 107.218C215.042 107.842 215.524 108.34 216.095 108.654C216.484 108.796 216.854 109.003 217.192 109.267C217.466 109.59 217.671 109.985 217.788 110.419C218.497 112.599 218.804 114.929 218.69 117.258C218.494 121.29 216.126 128.86 219.536 131.841C220.792 132.782 222.238 133.322 223.729 133.404C223.566 135.039 223.501 136.686 223.534 138.332C223.468 140.025 223.807 141.706 224.513 143.187C225.869 145.591 228.793 146.122 231.011 145.015C231.626 144.603 232.306 144.338 233.01 144.238C234.099 144.238 234.962 145.299 235.965 145.793C236.714 146.099 237.519 146.176 238.301 146.016C239.083 145.856 239.817 145.464 240.433 144.878C241.807 143.551 242.727 141.693 243.028 139.641C243.328 137.59 242.989 135.481 242.071 133.697C241.287 132.307 240.19 131.219 239.453 129.802C237.399 125.843 239.633 120.842 238.497 116.526C237.996 114.609 236.919 112.966 235.463 111.9C233.809 110.702 231.654 110.245 230.572 108.325C229.13 105.774 230.4 102.172 229.498 99.2918C228.824 97.1524 227.061 95.7901 225.274 95.0221C223.251 94.178 221.087 93.9037 218.956 94.2215C216.826 94.5393 214.79 95.4402 213.015 96.8507C210.107 99.1638 209.911 105.043 213.14 107.447Z" fill="#473F47"/>
        <path d="M186.592 100.883H166.472C165.459 100.883 164.638 101.841 164.638 103.022V103.086C164.638 104.268 165.459 105.226 166.472 105.226H186.592C187.605 105.226 188.426 104.268 188.426 103.086V103.022C188.426 101.841 187.605 100.883 186.592 100.883Z" fill="white"/>
        <path d="M219.701 249.51C219.631 250.614 219.278 251.668 218.69 252.536C218.594 252.5 218.501 252.451 218.415 252.39C218.415 252.39 216.197 251.018 215.907 248.87C215.617 246.721 207.936 181.166 208.187 176.211C208.437 171.256 212.31 156.709 212.31 156.709L211.925 158.2C212.239 158.346 213.493 158.757 214.175 158.931C217.381 159.736 212.968 162.213 212.059 165.048C211.158 168.384 210.75 171.874 210.852 175.37C210.75 178.365 210.937 181.365 211.408 184.312C211.957 187.31 212.976 190.163 213.54 193.162C214.653 199.361 213.54 205.889 214.504 212.133C214.755 213.779 215.139 215.379 215.39 217.025C215.784 220.31 215.929 223.63 215.821 226.945C215.821 231.617 215.946 236.399 217.389 240.732C218.329 243.622 219.866 246.41 219.701 249.51Z" fill="url(#paint7_linear_38_718)"/>
        <path d="M219.905 258.433C219.167 258.403 218.433 258.28 217.718 258.067C217.429 257.998 217.148 257.89 216.879 257.747C216.244 257.354 215.774 256.531 215.061 256.422C214.755 256.394 214.448 256.44 214.159 256.559L212.67 257.016C211.955 257.207 211.261 257.492 210.601 257.866C209.913 258.247 209.36 258.893 209.033 259.695C208.916 260.006 208.727 261.468 208.923 261.706C209.076 261.858 209.272 261.937 209.472 261.926C213.872 262.197 218.283 262.102 222.672 261.642C222.915 261.645 223.155 261.576 223.369 261.441C223.706 261.194 223.949 259.612 224.012 259.183C224.176 258.003 223.957 256.806 222.836 257.528C221.943 258.121 220.933 258.433 219.905 258.433Z" fill="#AA37E7"/>
        <path d="M243.325 251.603C242.927 253.184 242.071 254.554 240.903 255.48C240.645 255.732 240.338 255.906 240.008 255.987C239.679 256.068 239.338 256.054 239.014 255.946C238.834 255.83 238.648 255.726 238.458 255.635C238.232 255.594 238.001 255.621 237.787 255.714C237.573 255.807 237.383 255.962 237.235 256.166C236.913 256.55 236.67 257.016 236.326 257.363C235.681 257.86 234.979 258.248 234.241 258.515C233.543 258.899 232.861 259.695 232.994 260.6C233.159 261.77 234.421 262.081 235.408 262.081C237.511 262.071 239.608 261.854 241.679 261.432C242.009 261.396 242.323 261.247 242.58 261.002C242.816 260.628 242.957 260.185 242.988 259.722C243.159 258.511 243.585 257.368 244.226 256.394C245.245 254.895 246.923 253.724 246.962 251.823C246.962 250.588 245.935 248.559 244.893 248.166C243.85 247.772 243.56 250.524 243.325 251.603Z" fill="#AA37E7"/>
        <path d="M191.75 139.027H164.426C163.582 139.027 162.898 139.825 162.898 140.81V140.874C162.898 141.858 163.582 142.657 164.426 142.657H191.75C192.594 142.657 193.279 141.858 193.279 140.874V140.81C193.279 139.825 192.594 139.027 191.75 139.027Z" fill="url(#paint8_linear_38_718)"/>
        <path d="M191.75 148.901H164.426C163.582 148.901 162.898 149.699 162.898 150.684V150.748C162.898 151.733 163.582 152.531 164.426 152.531H191.75C192.594 152.531 193.279 151.733 193.279 150.748V150.684C193.279 149.699 192.594 148.901 191.75 148.901Z" fill="url(#paint9_linear_38_718)"/>
        <path d="M191.75 158.766H164.426C163.582 158.766 162.898 159.565 162.898 160.549V160.613C162.898 161.598 163.582 162.396 164.426 162.396H191.75C192.594 162.396 193.279 161.598 193.279 160.613V160.549C193.279 159.565 192.594 158.766 191.75 158.766Z" fill="url(#paint10_linear_38_718)"/>
        <path d="M191.75 168.631H164.426C163.582 168.631 162.898 169.43 162.898 170.414V170.478C162.898 171.463 163.582 172.261 164.426 172.261H191.75C192.594 172.261 193.279 171.463 193.279 170.478V170.414C193.279 169.43 192.594 168.631 191.75 168.631Z" fill="url(#paint11_linear_38_718)"/>
        <path d="M191.75 178.497H164.426C163.582 178.497 162.898 179.295 162.898 180.28V180.344C162.898 181.328 163.582 182.126 164.426 182.126H191.75C192.594 182.126 193.279 181.328 193.279 180.344V180.28C193.279 179.295 192.594 178.497 191.75 178.497Z" fill="url(#paint12_linear_38_718)"/>
        <path d="M274.678 46.3727V75.5111C274.696 76.8463 274.489 78.1727 274.069 79.4146C273.648 80.6564 273.021 81.7894 272.225 82.7488C271.429 83.7082 270.478 84.4752 269.428 85.0061C268.377 85.5369 267.247 85.8212 266.103 85.8426H247.04L238.418 100.407V85.8426H222.162C221.016 85.8271 219.885 85.5485 218.831 85.0227C217.778 84.4969 216.824 83.7342 216.023 82.7783C215.222 81.8223 214.591 80.6917 214.165 79.4511C213.739 78.2104 213.527 76.8841 213.54 75.5477V46.3727C213.522 45.0333 213.732 43.703 214.156 42.4582C214.58 41.2133 215.211 40.0784 216.012 39.1185C216.813 38.1586 217.768 37.3927 218.824 36.8646C219.879 36.3366 221.014 36.0567 222.162 36.0413H266.056C267.2 36.0556 268.331 36.3328 269.384 36.857C270.437 37.3812 271.391 38.1422 272.192 39.0965C272.992 40.0508 273.624 41.1797 274.05 42.4187C274.477 43.6578 274.69 44.9827 274.678 46.3179V46.3727Z" fill="white"/>
        <path d="M245.305 61.5001H248V52.5001C248 51.6718 248.67 51.0001 249.5 51.0001C250.33 51.0001 251 51.6718 251 52.5001V61.5001H252.5C253.33 61.5001 254 62.1704 254 63C254 63.8297 253.33 64.5 252.5 64.5H251V70.5C251 71.1609 250.569 71.7422 249.936 71.9344C249.303 72.1266 248.619 71.8828 248.253 71.3344L243.697 64.5H239V70.5C239 71.3297 238.33 72 237.5 72C236.672 72 236 71.3297 236 70.5V64.5H234.5C233.672 64.5 233 63.8297 233 63C233 62.1704 233.672 61.5001 234.5 61.5001H236V52.5001C236 51.8392 236.433 51.256 237.065 51.0643C237.697 50.8731 238.381 51.1182 238.747 51.6681L245.305 61.5001ZM247.302 64.5L248 65.5453V64.5H247.302ZM241.695 61.5001L239 57.4548V61.5001H241.695Z" fill="#AA37E7"/>
        <path d="M107.996 135.406L107.801 135.797L107.605 136.207L106.805 135.602L107 135.191C107.326 134.527 107.592 133.863 107.801 133.199C108.022 132.522 108.198 131.891 108.328 131.305C108.471 130.719 108.589 130.204 108.68 129.762C108.771 129.319 108.862 129 108.953 128.805C109.031 128.648 109.142 128.525 109.285 128.434C109.441 128.329 109.598 128.245 109.754 128.18C109.923 128.115 110.079 128.069 110.223 128.043C110.379 128.017 110.49 128.004 110.555 128.004C110.841 128.004 111.03 128.062 111.121 128.18C111.225 128.297 111.277 128.505 111.277 128.805C111.277 128.948 111.245 129.306 111.18 129.879C111.128 130.439 111.062 131.148 110.984 132.008C110.919 132.854 110.854 133.811 110.789 134.879C110.737 135.934 110.711 137.027 110.711 138.16C110.711 138.98 110.75 139.632 110.828 140.113C110.906 140.582 111.004 140.934 111.121 141.168C111.251 141.402 111.388 141.552 111.531 141.617C111.688 141.682 111.844 141.715 112 141.715C112.208 141.715 112.443 141.624 112.703 141.441C112.964 141.259 113.27 140.94 113.621 140.484C113.973 140.016 114.376 139.391 114.832 138.609C115.288 137.815 115.822 136.812 116.434 135.602L116.648 135.191L117.449 135.797L117.234 136.207C116.74 137.171 116.245 138.121 115.75 139.059C115.268 139.996 114.773 140.829 114.266 141.559C113.771 142.288 113.27 142.88 112.762 143.336C112.254 143.779 111.746 144 111.238 144C110.704 144 110.242 143.896 109.852 143.688C109.474 143.466 109.155 143.108 108.895 142.613C108.647 142.118 108.458 141.467 108.328 140.66C108.211 139.84 108.152 138.831 108.152 137.633C108.152 137.294 108.152 136.943 108.152 136.578C108.152 136.201 108.165 135.81 108.191 135.406H107.996ZM112 124C112 124.456 111.844 124.84 111.531 125.152C111.232 125.452 110.854 125.602 110.398 125.602C109.956 125.602 109.578 125.452 109.266 125.152C108.953 124.84 108.797 124.456 108.797 124C108.797 123.557 108.953 123.18 109.266 122.867C109.578 122.555 109.956 122.398 110.398 122.398C110.854 122.398 111.232 122.555 111.531 122.867C111.844 123.18 112 123.557 112 124ZM118.145 135.406L117.949 135.797L117.754 136.207L116.953 135.602L117.148 135.191C117.474 134.527 117.741 133.863 117.949 133.199C118.171 132.522 118.346 131.891 118.477 131.305C118.62 130.719 118.737 130.204 118.828 129.762C118.919 129.319 119.01 129 119.102 128.805C119.18 128.648 119.29 128.525 119.434 128.434C119.59 128.329 119.746 128.245 119.902 128.18C120.072 128.115 120.228 128.069 120.371 128.043C120.527 128.017 120.638 128.004 120.703 128.004C120.99 128.004 121.178 128.062 121.27 128.18C121.374 128.297 121.426 128.505 121.426 128.805C121.426 128.948 121.393 129.306 121.328 129.879C121.276 130.439 121.211 131.148 121.133 132.008C121.068 132.854 121.003 133.811 120.938 134.879C120.885 135.934 120.859 137.027 120.859 138.16C120.859 138.98 120.898 139.632 120.977 140.113C121.055 140.582 121.152 140.934 121.27 141.168C121.4 141.402 121.536 141.552 121.68 141.617C121.836 141.682 121.992 141.715 122.148 141.715C122.357 141.715 122.591 141.624 122.852 141.441C123.112 141.259 123.418 140.94 123.77 140.484C124.121 140.016 124.525 139.391 124.98 138.609C125.436 137.815 125.97 136.812 126.582 135.602L126.797 135.191L127.598 135.797L127.383 136.207C126.888 137.171 126.393 138.121 125.898 139.059C125.417 139.996 124.922 140.829 124.414 141.559C123.919 142.288 123.418 142.88 122.91 143.336C122.402 143.779 121.895 144 121.387 144C120.853 144 120.391 143.896 120 143.688C119.622 143.466 119.303 143.108 119.043 142.613C118.796 142.118 118.607 141.467 118.477 140.66C118.359 139.84 118.301 138.831 118.301 137.633C118.301 137.294 118.301 136.943 118.301 136.578C118.301 136.201 118.314 135.81 118.34 135.406H118.145ZM122.148 124C122.148 124.456 121.992 124.84 121.68 125.152C121.38 125.452 121.003 125.602 120.547 125.602C120.104 125.602 119.727 125.452 119.414 125.152C119.102 124.84 118.945 124.456 118.945 124C118.945 123.557 119.102 123.18 119.414 122.867C119.727 122.555 120.104 122.398 120.547 122.398C121.003 122.398 121.38 122.555 121.68 122.867C121.992 123.18 122.148 123.557 122.148 124Z" fill="#AA37E7"/>
    </g>

</svg>
